G04*
G04 #@! TF.GenerationSoftware,Altium Limited,Altium Designer,26.1.1 (7)*
G04*
G04 Layer_Color=8388736*
%FSLAX25Y25*%
%MOIN*%
G70*
G04*
G04 #@! TF.SameCoordinates,68A3534C-4751-42E1-90B0-0C70C05802D8*
G04*
G04*
G04 #@! TF.FilePolarity,Negative*
G04*
G01*
G75*
%ADD19R,0.06509X0.04737*%
%ADD20R,0.03556X0.03162*%
%ADD21R,0.06587X0.05013*%
%ADD22R,0.08674X0.05721*%
%ADD23C,0.08674*%
%ADD24R,0.08674X0.08674*%
%ADD25R,0.07001X0.07001*%
%ADD26C,0.07001*%
%ADD27C,0.10642*%
%ADD28R,0.10642X0.10642*%
D19*
X189500Y86260D02*
D03*
X302500Y126740D02*
D03*
X117500Y131240D02*
D03*
X137500Y32020D02*
D03*
Y53240D02*
D03*
X127000Y124760D02*
D03*
X302000Y54260D02*
D03*
X117500Y123760D02*
D03*
X264000Y140500D02*
D03*
Y147980D02*
D03*
X308500Y143000D02*
D03*
Y135520D02*
D03*
X302500Y119260D02*
D03*
X218000Y16020D02*
D03*
Y23500D02*
D03*
X137500Y39500D02*
D03*
Y45760D02*
D03*
X127000Y132240D02*
D03*
X264000Y115260D02*
D03*
X189500Y93740D02*
D03*
X302000Y61740D02*
D03*
X264000Y122740D02*
D03*
D20*
X329937Y100500D02*
D03*
X330000Y71500D02*
D03*
X322063Y96760D02*
D03*
Y104240D02*
D03*
X322126Y67760D02*
D03*
Y75240D02*
D03*
D21*
X264000Y169957D02*
D03*
X184000Y56228D02*
D03*
X100000Y54457D02*
D03*
Y48000D02*
D03*
X184000Y49772D02*
D03*
X218000Y40500D02*
D03*
Y34043D02*
D03*
X264000Y163500D02*
D03*
D22*
X302500Y87382D02*
D03*
Y95500D02*
D03*
Y110264D02*
D03*
Y72618D02*
D03*
D23*
X177000Y105000D02*
D03*
Y75000D02*
D03*
X117000D02*
D03*
X137000D02*
D03*
X147000D02*
D03*
X157000D02*
D03*
X167000D02*
D03*
X107000Y105000D02*
D03*
X117000D02*
D03*
X127000D02*
D03*
X147000D02*
D03*
X157000D02*
D03*
X167000D02*
D03*
X137000D02*
D03*
X127000Y75000D02*
D03*
X22000Y63500D02*
D03*
X233888Y105245D02*
D03*
X21000Y149000D02*
D03*
X21500Y20000D02*
D03*
X223888Y75245D02*
D03*
X22000Y103500D02*
D03*
Y73500D02*
D03*
Y113500D02*
D03*
Y53500D02*
D03*
Y83500D02*
D03*
X233888Y75245D02*
D03*
X22000Y93500D02*
D03*
X253888Y105245D02*
D03*
X243888D02*
D03*
X223888D02*
D03*
X213888D02*
D03*
X203888D02*
D03*
X263888Y75245D02*
D03*
X253888D02*
D03*
X243888D02*
D03*
X213888D02*
D03*
X203888D02*
D03*
X117264Y64081D02*
D03*
X293763Y157081D02*
D03*
X139500Y116000D02*
D03*
X163764Y122081D02*
D03*
X69264Y75000D02*
D03*
X156000Y35000D02*
D03*
X264264Y180081D02*
D03*
X116764Y147081D02*
D03*
X137764Y63581D02*
D03*
X46500Y134000D02*
D03*
Y113000D02*
D03*
X129500Y115000D02*
D03*
X84264Y105581D02*
D03*
X268764Y54081D02*
D03*
X111500Y49500D02*
D03*
X213764Y58110D02*
D03*
X228500Y57500D02*
D03*
X249764Y63081D02*
D03*
X117000Y115000D02*
D03*
X251500Y115500D02*
D03*
X313000Y82500D02*
D03*
X319500Y136000D02*
D03*
X127764Y143581D02*
D03*
X254264Y167581D02*
D03*
X190779Y73566D02*
D03*
X242264Y95081D02*
D03*
X283764Y143081D02*
D03*
X202764Y37581D02*
D03*
X218000Y7000D02*
D03*
X283764Y87581D02*
D03*
X279764Y98081D02*
D03*
X311764Y67581D02*
D03*
D24*
X107000Y75000D02*
D03*
X21000Y159000D02*
D03*
X21500Y30000D02*
D03*
X22000Y123500D02*
D03*
X263888Y105245D02*
D03*
D25*
X224000Y148500D02*
D03*
X366000Y94500D02*
D03*
X127000Y40500D02*
D03*
Y166500D02*
D03*
D26*
X224000Y158500D02*
D03*
X127000Y50500D02*
D03*
Y156500D02*
D03*
X366000Y84500D02*
D03*
D27*
X274500Y17000D02*
D03*
X294185D02*
D03*
D28*
X254815D02*
D03*
M02*
