G04*
G04 #@! TF.GenerationSoftware,Altium Limited,Altium Designer,26.1.1 (7)*
G04*
G04 Layer_Color=8421504*
%FSLAX25Y25*%
%MOIN*%
G70*
G04*
G04 #@! TF.SameCoordinates,68A3534C-4751-42E1-90B0-0C70C05802D8*
G04*
G04*
G04 #@! TF.FilePolarity,Positive*
G04*
G01*
G75*
%ADD15R,0.05709X0.03937*%
%ADD16R,0.02756X0.02362*%
%ADD17R,0.05787X0.04213*%
%ADD18R,0.07874X0.04921*%
D15*
X189500Y86260D02*
D03*
X302500Y126740D02*
D03*
X117500Y131240D02*
D03*
X137500Y32020D02*
D03*
Y53240D02*
D03*
X127000Y124760D02*
D03*
X302000Y54260D02*
D03*
X117500Y123760D02*
D03*
X264000Y140500D02*
D03*
Y147980D02*
D03*
X308500Y143000D02*
D03*
Y135520D02*
D03*
X302500Y119260D02*
D03*
X218000Y16020D02*
D03*
Y23500D02*
D03*
X137500Y39500D02*
D03*
Y45760D02*
D03*
X127000Y132240D02*
D03*
X264000Y115260D02*
D03*
X189500Y93740D02*
D03*
X302000Y61740D02*
D03*
X264000Y122740D02*
D03*
D16*
X329937Y100500D02*
D03*
X330000Y71500D02*
D03*
X322063Y96760D02*
D03*
Y104240D02*
D03*
X322126Y67760D02*
D03*
Y75240D02*
D03*
D17*
X264000Y169957D02*
D03*
X184000Y56228D02*
D03*
X100000Y54457D02*
D03*
Y48000D02*
D03*
X184000Y49772D02*
D03*
X218000Y40500D02*
D03*
Y34043D02*
D03*
X264000Y163500D02*
D03*
D18*
X302500Y87382D02*
D03*
Y95500D02*
D03*
Y110264D02*
D03*
Y72618D02*
D03*
M02*
