M48
;Layer_Color=9474304
;FILE_FORMAT=2:5
INCH
;TYPE=PLATED
T01F00S00C0.03937
T02F00S00C0.04134
T03F00S00C0.05197
%
T01
X0211500Y0149500
X0256000Y0135000
X0302764Y0137581
X0318000Y0107000
X0368764Y0154081
X0363888Y0175245
X0353888
X0343888
X0333888
X0323888
X0313888
X0313764Y0158110
X0328500Y0157500
X0349764Y0163081
X0342264Y0195081
X0343888Y0205245
X0333888
X0323888
X0313888
X0353888
X0363888
X0351500Y0215500
X0379764Y0198081
X0383764Y0187581
X0413000Y0182500
X0411764Y0167581
X0419500Y0236000
X0383764Y0243081
X0393763Y0257081
X0354264Y0267581
X0364264Y0280081
X0303888Y0205245
X0277000Y0205000
X0267000
X0257000
X0247000
X0237000
X0227000
X0217000
Y0215000
X0229500
X0239500Y0216000
X0263764Y0222081
X0267000Y0175000
X0277000
X0290779Y0173566
X0303888Y0175245
X0257000Y0175000
X0247000
X0237000
X0227000
X0217000
X0207000
X0217264Y0164081
X0237764Y0163581
X0207000Y0205000
X0184264Y0205581
X0169264Y0175000
X0216764Y0247081
X0227764Y0243581
X0146500Y0234000
Y0213000
T02
X0121500Y0120000
Y0130000
X0122000Y0153500
X0227000Y0150500
Y0140500
X0324000Y0248500
Y0258500
X0466000Y0194500
Y0184500
X0227000Y0256500
Y0266500
X0121000Y0259000
Y0249000
X0122000Y0223500
Y0213500
Y0203500
Y0193500
Y0183500
Y0173500
Y0163500
T03
X0354815Y0117000
X0374500
X0394185
M30
