G04*
G04 #@! TF.GenerationSoftware,Altium Limited,Altium Designer,26.1.1 (7)*
G04*
G04 Layer_Physical_Order=2*
G04 Layer_Color=16711680*
%FSLAX25Y25*%
%MOIN*%
G70*
G04*
G04 #@! TF.SameCoordinates,68A3534C-4751-42E1-90B0-0C70C05802D8*
G04*
G04*
G04 #@! TF.FilePolarity,Positive*
G04*
G01*
G75*
%ADD29C,0.01968*%
%ADD30C,0.07874*%
%ADD31R,0.07874X0.07874*%
%ADD32R,0.06201X0.06201*%
%ADD33C,0.06201*%
%ADD34C,0.09843*%
%ADD35R,0.09843X0.09843*%
G36*
X290371Y164199D02*
X290966Y162314D01*
X289999Y161668D01*
X289176Y160846D01*
X288650Y160059D01*
X260033D01*
X259487Y160606D01*
X258870Y161079D01*
X258769Y161121D01*
X258392Y162076D01*
X258300Y162714D01*
X258369Y163334D01*
X258852Y163817D01*
X259323Y164522D01*
X290196D01*
X290371Y164199D01*
D02*
G37*
G36*
X393500Y0D02*
X264496D01*
X263680Y1969D01*
X272205Y10493D01*
X272490Y10375D01*
X273821Y10110D01*
X275179D01*
X276510Y10375D01*
X277764Y10894D01*
X278892Y11648D01*
X279852Y12608D01*
X280606Y13736D01*
X280724Y14022D01*
X287961D01*
X288079Y13736D01*
X288833Y12608D01*
X289793Y11648D01*
X290921Y10894D01*
X292175Y10375D01*
X293507Y10110D01*
X294864D01*
X296195Y10375D01*
X297449Y10894D01*
X298577Y11648D01*
X299537Y12608D01*
X300291Y13736D01*
X300810Y14990D01*
X301075Y16321D01*
Y17679D01*
X300810Y19010D01*
X300291Y20264D01*
X299537Y21392D01*
X298577Y22352D01*
X297449Y23106D01*
X296195Y23625D01*
X294864Y23890D01*
X293507D01*
X292175Y23625D01*
X290921Y23106D01*
X289793Y22352D01*
X288833Y21392D01*
X288079Y20264D01*
X287961Y19978D01*
X280724D01*
X280606Y20264D01*
X279852Y21392D01*
X278892Y22352D01*
X277764Y23106D01*
X276510Y23625D01*
X275179Y23890D01*
X273821D01*
X272490Y23625D01*
X271236Y23106D01*
X270108Y22352D01*
X269148Y21392D01*
X268394Y20264D01*
X267875Y19010D01*
X267610Y17679D01*
Y16321D01*
X267875Y14990D01*
X267993Y14705D01*
X263673Y10385D01*
X261705Y11201D01*
X261705Y11592D01*
X261705Y11592D01*
X261705Y11627D01*
Y23890D01*
X257793D01*
Y43685D01*
X257692Y44456D01*
X257394Y45174D01*
X256921Y45791D01*
X247014Y55698D01*
X248042Y57403D01*
X249183Y57176D01*
X250346D01*
X251487Y57403D01*
X252562Y57848D01*
X253529Y58494D01*
X254351Y59317D01*
X254877Y60103D01*
X259185D01*
X263203Y56086D01*
X263086Y55804D01*
X262859Y54663D01*
Y53500D01*
X263086Y52359D01*
X263531Y51284D01*
X264177Y50317D01*
X265000Y49494D01*
X265967Y48848D01*
X267042Y48403D01*
X268183Y48176D01*
X269346D01*
X270487Y48403D01*
X271562Y48848D01*
X272529Y49494D01*
X273352Y50317D01*
X273998Y51284D01*
X274443Y52359D01*
X274670Y53500D01*
Y54663D01*
X274443Y55804D01*
X273998Y56878D01*
X273352Y57846D01*
X272529Y58668D01*
X271562Y59315D01*
X270487Y59760D01*
X269346Y59987D01*
X268183D01*
X267801Y59911D01*
X262525Y65187D01*
X261908Y65660D01*
X261190Y65958D01*
X260419Y66059D01*
X255131D01*
X253878Y67614D01*
X254090Y68606D01*
X254548Y69355D01*
X255610Y69566D01*
X256685Y70012D01*
X257652Y70658D01*
X258888Y71274D01*
X260123Y70658D01*
X261090Y70012D01*
X262165Y69566D01*
X263306Y69339D01*
X264469D01*
X265610Y69566D01*
X266685Y70012D01*
X267652Y70658D01*
X268475Y71480D01*
X269121Y72448D01*
X269439Y73214D01*
X272375D01*
X273146Y73316D01*
X273865Y73613D01*
X274481Y74086D01*
X282255Y81860D01*
X283183Y81676D01*
X284346D01*
X285487Y81903D01*
X286562Y82348D01*
X287529Y82994D01*
X288351Y83817D01*
X288998Y84784D01*
X289443Y85859D01*
X289670Y86999D01*
Y88163D01*
X289443Y89304D01*
X288998Y90378D01*
X288351Y91346D01*
X287529Y92168D01*
X286562Y92814D01*
X285830Y93117D01*
X285226Y94339D01*
X285001Y95269D01*
X285029Y95358D01*
X285443Y96359D01*
X285670Y97500D01*
Y98663D01*
X285443Y99804D01*
X284998Y100878D01*
X284351Y101846D01*
X283529Y102668D01*
X282562Y103314D01*
X281487Y103760D01*
X281454Y103766D01*
X280806Y105902D01*
X285606Y110702D01*
X286079Y111318D01*
X286377Y112037D01*
X286478Y112807D01*
X286478Y112808D01*
Y137813D01*
X286562Y137848D01*
X287529Y138494D01*
X288351Y139317D01*
X288998Y140284D01*
X289443Y141359D01*
X289670Y142499D01*
Y143663D01*
X289443Y144804D01*
X288998Y145878D01*
X288351Y146846D01*
X287529Y147668D01*
X286562Y148314D01*
X285487Y148760D01*
X284346Y148987D01*
X283183D01*
X282042Y148760D01*
X280967Y148314D01*
X280000Y147668D01*
X279177Y146846D01*
X278531Y145878D01*
X278086Y144804D01*
X277859Y143663D01*
Y142499D01*
X278086Y141359D01*
X278531Y140284D01*
X279177Y139317D01*
X280000Y138494D01*
X280522Y138145D01*
Y114041D01*
X271612Y105131D01*
X269793Y105885D01*
Y111151D01*
X258064D01*
X256640Y112563D01*
X256733Y112703D01*
X257179Y113777D01*
X257405Y114918D01*
Y116082D01*
X257179Y117223D01*
X256733Y118297D01*
X256087Y119264D01*
X255264Y120087D01*
X254297Y120733D01*
X253223Y121179D01*
X252082Y121405D01*
X250918D01*
X249777Y121179D01*
X248703Y120733D01*
X247736Y120087D01*
X246913Y119264D01*
X246267Y118297D01*
X245821Y117223D01*
X245595Y116082D01*
Y114918D01*
X245821Y113777D01*
X246250Y112742D01*
X246150Y112458D01*
X245008Y111043D01*
X244469Y111151D01*
X243306D01*
X242165Y110924D01*
X241090Y110478D01*
X240240Y109910D01*
X238888Y109220D01*
X237535Y109910D01*
X236866Y110357D01*
Y138612D01*
X236764Y139383D01*
X236467Y140101D01*
X235994Y140718D01*
X229069Y147643D01*
Y153569D01*
X229069D01*
X229107Y155522D01*
X256147D01*
X256694Y154975D01*
X257311Y154502D01*
X258029Y154204D01*
X258800Y154103D01*
X288650D01*
X289176Y153317D01*
X289999Y152494D01*
X290966Y151848D01*
X292040Y151403D01*
X293181Y151176D01*
X294345D01*
X295486Y151403D01*
X296560Y151848D01*
X297528Y152494D01*
X298350Y153317D01*
X298996Y154284D01*
X299088Y154504D01*
X301057Y155058D01*
X301377Y154999D01*
X304515Y151861D01*
Y148007D01*
X304617Y147236D01*
X304914Y146517D01*
X305387Y145901D01*
X313779Y137509D01*
X313595Y136582D01*
Y135418D01*
X313821Y134277D01*
X314267Y133203D01*
X314913Y132236D01*
X315736Y131413D01*
X316703Y130767D01*
X317777Y130321D01*
X318918Y130095D01*
X320082D01*
X321223Y130321D01*
X322297Y130767D01*
X323265Y131413D01*
X324087Y132236D01*
X324733Y133203D01*
X325179Y134277D01*
X325406Y135418D01*
Y136582D01*
X325179Y137723D01*
X324733Y138797D01*
X324087Y139764D01*
X323265Y140587D01*
X322297Y141233D01*
X321223Y141679D01*
X320082Y141905D01*
X318918D01*
X317991Y141721D01*
X310472Y149240D01*
Y153094D01*
X310472Y153094D01*
X310370Y153865D01*
X310073Y154583D01*
X309599Y155200D01*
X295194Y169606D01*
X294577Y170079D01*
X293859Y170377D01*
X293088Y170478D01*
X259431D01*
X258852Y171346D01*
X258029Y172168D01*
X257062Y172815D01*
X255987Y173260D01*
X254846Y173487D01*
X253683D01*
X252542Y173260D01*
X251467Y172815D01*
X250500Y172168D01*
X249677Y171346D01*
X249031Y170378D01*
X248586Y169304D01*
X248359Y168163D01*
Y166999D01*
X248586Y165859D01*
X249031Y164784D01*
X249677Y163817D01*
X250047Y163447D01*
X249466Y161660D01*
X249325Y161478D01*
X228134D01*
X228056Y161612D01*
X227112Y162556D01*
X225957Y163224D01*
X224667Y163569D01*
X223333D01*
X222043Y163224D01*
X220888Y162556D01*
X219944Y161612D01*
X219276Y160457D01*
X218931Y159167D01*
Y157833D01*
X219276Y156544D01*
X219857Y155537D01*
X219686Y154902D01*
X218979Y153569D01*
X218931D01*
Y143431D01*
X224857D01*
X230909Y137379D01*
Y115007D01*
X229091Y114254D01*
X218739Y124606D01*
X218122Y125079D01*
X217404Y125377D01*
X216633Y125478D01*
X168597D01*
X168351Y125846D01*
X167529Y126668D01*
X166562Y127314D01*
X165487Y127760D01*
X164346Y127987D01*
X163183D01*
X162042Y127760D01*
X160967Y127314D01*
X160000Y126668D01*
X159177Y125846D01*
X158531Y124878D01*
X158086Y123804D01*
X155967Y123244D01*
X143106Y136106D01*
X142489Y136579D01*
X141771Y136877D01*
X141000Y136978D01*
X132055D01*
X131458Y138947D01*
X131529Y138994D01*
X132352Y139817D01*
X132998Y140784D01*
X133443Y141859D01*
X133670Y142999D01*
Y144163D01*
X133443Y145304D01*
X132998Y146378D01*
X132352Y147346D01*
X131529Y148168D01*
X130562Y148814D01*
X130360Y148898D01*
Y152692D01*
X131056Y153388D01*
X131723Y154543D01*
X132069Y155833D01*
Y157167D01*
X131723Y158457D01*
X131143Y159463D01*
X131314Y160098D01*
X132021Y161431D01*
X132069D01*
Y171569D01*
X121931D01*
Y161431D01*
X121979D01*
X122686Y160098D01*
X122857Y159463D01*
X122276Y158457D01*
X121931Y157167D01*
Y155833D01*
X122276Y154543D01*
X122944Y153388D01*
X123888Y152444D01*
X124404Y152146D01*
Y149154D01*
X123357Y148429D01*
X121901Y148837D01*
X121267Y149156D01*
X120715Y150112D01*
X119796Y151032D01*
X118670Y151682D01*
X117414Y152018D01*
X117264D01*
Y147081D01*
Y142144D01*
X117414D01*
X118670Y142481D01*
X119796Y143131D01*
X119890Y143225D01*
X120678Y143135D01*
X121957Y142508D01*
X122086Y141859D01*
X122531Y140784D01*
X123177Y139817D01*
X124000Y138994D01*
X124071Y138947D01*
X123474Y136978D01*
X51613D01*
X51087Y137765D01*
X50265Y138587D01*
X49297Y139233D01*
X48223Y139679D01*
X47082Y139906D01*
X45918D01*
X44777Y139679D01*
X43703Y139233D01*
X42735Y138587D01*
X41913Y137765D01*
X41267Y136797D01*
X40821Y135723D01*
X40595Y134582D01*
Y133418D01*
X40821Y132277D01*
X41267Y131203D01*
X41913Y130236D01*
X42735Y129413D01*
X43433Y128947D01*
X43406Y128090D01*
X42919Y126978D01*
X27905D01*
Y129405D01*
X16094D01*
Y117595D01*
X16094Y117595D01*
X16488Y115626D01*
X16321Y115223D01*
X16094Y114082D01*
Y112918D01*
X16321Y111777D01*
X16767Y110703D01*
X17335Y109853D01*
X18025Y108500D01*
X17335Y107147D01*
X16767Y106297D01*
X16321Y105223D01*
X16094Y104082D01*
Y102918D01*
X16321Y101777D01*
X16767Y100703D01*
X17335Y99853D01*
X18025Y98500D01*
X17335Y97147D01*
X16767Y96297D01*
X16321Y95223D01*
X16094Y94082D01*
Y92918D01*
X16321Y91777D01*
X16767Y90703D01*
X17335Y89853D01*
X18025Y88500D01*
X17335Y87147D01*
X16767Y86297D01*
X16321Y85223D01*
X16094Y84082D01*
Y82918D01*
X16321Y81777D01*
X16767Y80703D01*
X17335Y79853D01*
X18025Y78500D01*
X17335Y77147D01*
X16767Y76297D01*
X16321Y75223D01*
X16094Y74082D01*
Y72918D01*
X16321Y71777D01*
X16767Y70703D01*
X17335Y69853D01*
X18025Y68500D01*
X17335Y67147D01*
X16767Y66297D01*
X16321Y65223D01*
X16094Y64082D01*
Y62918D01*
X16321Y61777D01*
X16767Y60703D01*
X17335Y59853D01*
X18025Y58500D01*
X17335Y57147D01*
X16767Y56297D01*
X16321Y55223D01*
X16094Y54082D01*
Y52918D01*
X16321Y51777D01*
X16767Y50703D01*
X17413Y49736D01*
X18236Y48913D01*
X19203Y48267D01*
X20277Y47821D01*
X21418Y47594D01*
X22582D01*
X23509Y47779D01*
X40894Y30394D01*
X40894Y30394D01*
X41511Y29921D01*
X42229Y29623D01*
X43000Y29522D01*
X138000D01*
X138771Y29623D01*
X139489Y29921D01*
X140106Y30394D01*
X149106Y39394D01*
X149579Y40011D01*
X149877Y40729D01*
X149978Y41500D01*
Y69888D01*
X150647Y70335D01*
X152000Y71025D01*
X153353Y70335D01*
X154203Y69767D01*
X155277Y69321D01*
X156418Y69095D01*
X157582D01*
X158723Y69321D01*
X159797Y69767D01*
X160647Y70335D01*
X162000Y71025D01*
X163353Y70335D01*
X164203Y69767D01*
X165277Y69321D01*
X166418Y69095D01*
X167582D01*
X168723Y69321D01*
X169797Y69767D01*
X170647Y70335D01*
X172000Y71025D01*
X173353Y70335D01*
X174203Y69767D01*
X175277Y69321D01*
X176418Y69095D01*
X177582D01*
X178723Y69321D01*
X179797Y69767D01*
X180764Y70413D01*
X181587Y71236D01*
X182233Y72203D01*
X182679Y73277D01*
X182905Y74418D01*
Y75582D01*
X182679Y76723D01*
X182233Y77797D01*
X181587Y78764D01*
X180764Y79587D01*
X179797Y80233D01*
X178723Y80679D01*
X177582Y80905D01*
X176418D01*
X175491Y80721D01*
X167254Y88958D01*
X167155Y89477D01*
X167590Y91405D01*
X167705Y91493D01*
X175491Y99279D01*
X176418Y99094D01*
X177582D01*
X178723Y99321D01*
X179797Y99767D01*
X180764Y100413D01*
X181587Y101235D01*
X182233Y102203D01*
X182679Y103277D01*
X182905Y104418D01*
Y105582D01*
X182679Y106723D01*
X182233Y107797D01*
X181587Y108765D01*
X180764Y109587D01*
X179797Y110233D01*
X178723Y110679D01*
X177582Y110906D01*
X176418D01*
X175277Y110679D01*
X174203Y110233D01*
X173353Y109665D01*
X172000Y108975D01*
X170647Y109665D01*
X169797Y110233D01*
X168723Y110679D01*
X167582Y110906D01*
X166418D01*
X165277Y110679D01*
X164203Y110233D01*
X163353Y109665D01*
X162000Y108975D01*
X160647Y109665D01*
X159978Y110113D01*
Y115190D01*
X160047Y115306D01*
X161947Y116442D01*
X162042Y116403D01*
X163183Y116176D01*
X164346D01*
X165487Y116403D01*
X166562Y116848D01*
X167529Y117494D01*
X168351Y118317D01*
X168998Y119284D01*
X169096Y119522D01*
X215399D01*
X222019Y112902D01*
X222058Y112374D01*
X221492Y110645D01*
X221090Y110478D01*
X220240Y109910D01*
X218888Y109220D01*
X217535Y109910D01*
X216685Y110478D01*
X215610Y110924D01*
X214469Y111151D01*
X213306D01*
X212165Y110924D01*
X211090Y110478D01*
X210240Y109910D01*
X208888Y109220D01*
X207535Y109910D01*
X206685Y110478D01*
X205610Y110924D01*
X204469Y111151D01*
X203306D01*
X202165Y110924D01*
X201090Y110478D01*
X200123Y109832D01*
X199301Y109010D01*
X198775Y108223D01*
X191035D01*
X190264Y108122D01*
X189546Y107824D01*
X188929Y107351D01*
X187776Y106198D01*
X187303Y105581D01*
X187005Y104863D01*
X186904Y104092D01*
Y78042D01*
X186192Y77330D01*
X185546Y76363D01*
X185101Y75289D01*
X184874Y74148D01*
Y72984D01*
X185101Y71843D01*
X185546Y70769D01*
X186192Y69801D01*
X187015Y68979D01*
X187982Y68333D01*
X189057Y67887D01*
X190198Y67660D01*
X191361D01*
X192502Y67887D01*
X193577Y68333D01*
X194544Y68979D01*
X195367Y69801D01*
X196013Y70769D01*
X196458Y71843D01*
X196561Y72359D01*
X198608Y72560D01*
X198654Y72448D01*
X199301Y71480D01*
X200123Y70658D01*
X201090Y70012D01*
X201492Y69845D01*
X202058Y68116D01*
X202019Y67588D01*
X200658Y66228D01*
X200185Y65611D01*
X199888Y64893D01*
X199786Y64122D01*
Y42694D01*
X199000Y42168D01*
X198177Y41346D01*
X197531Y40378D01*
X197086Y39304D01*
X196859Y38163D01*
Y36999D01*
X197086Y35859D01*
X197531Y34784D01*
X198177Y33817D01*
X199000Y32994D01*
X199967Y32348D01*
X201042Y31903D01*
X202183Y31676D01*
X203346D01*
X204487Y31903D01*
X205562Y32348D01*
X206529Y32994D01*
X207351Y33817D01*
X207998Y34784D01*
X208443Y35859D01*
X208670Y36999D01*
Y38163D01*
X208443Y39304D01*
X207998Y40378D01*
X207351Y41346D01*
X206529Y42168D01*
X205743Y42694D01*
Y62888D01*
X212379Y69524D01*
X213306Y69339D01*
X214469D01*
X215610Y69566D01*
X216685Y70012D01*
X217652Y70658D01*
X218229Y71235D01*
X218646Y71473D01*
X220764Y71386D01*
X220856Y71294D01*
X221982Y70644D01*
X223238Y70308D01*
X223388D01*
Y75245D01*
X224388D01*
Y70308D01*
X224538D01*
X225793Y70644D01*
X226919Y71294D01*
X227011Y71386D01*
X229130Y71473D01*
X229546Y71235D01*
X230123Y70658D01*
X230909Y70132D01*
Y64807D01*
X229251Y63372D01*
X229082Y63406D01*
X227918D01*
X226777Y63179D01*
X225703Y62733D01*
X224735Y62087D01*
X223913Y61264D01*
X223591Y60783D01*
X219049D01*
X218998Y60908D01*
X218352Y61875D01*
X217529Y62697D01*
X216562Y63344D01*
X215487Y63789D01*
X214346Y64016D01*
X213183D01*
X212042Y63789D01*
X210967Y63344D01*
X210000Y62697D01*
X209177Y61875D01*
X208531Y60908D01*
X208086Y59833D01*
X207859Y58692D01*
Y57529D01*
X208086Y56388D01*
X208531Y55313D01*
X209177Y54346D01*
X210000Y53523D01*
X210967Y52877D01*
X212042Y52432D01*
X213183Y52205D01*
X214346D01*
X215487Y52432D01*
X216562Y52877D01*
X217529Y53523D01*
X218352Y54346D01*
X218673Y54827D01*
X223215D01*
X223267Y54703D01*
X223913Y53736D01*
X224735Y52913D01*
X225703Y52267D01*
X226777Y51821D01*
X227918Y51595D01*
X229082D01*
X230223Y51821D01*
X231297Y52267D01*
X232264Y52913D01*
X233087Y53736D01*
X233733Y54703D01*
X234179Y55777D01*
X234405Y56918D01*
Y58082D01*
X234221Y59009D01*
X235994Y60782D01*
X236467Y61399D01*
X236764Y62117D01*
X236866Y62888D01*
Y69600D01*
X237993Y70317D01*
X239896Y69386D01*
Y55625D01*
X239998Y54855D01*
X240295Y54136D01*
X240769Y53519D01*
X251837Y42451D01*
Y23890D01*
X247925D01*
Y10110D01*
X260188Y10110D01*
X260223D01*
X260223D01*
X260614Y10110D01*
X260891Y9442D01*
X261430Y8142D01*
X259266Y5978D01*
X224832D01*
X223905Y6904D01*
Y7582D01*
X223679Y8723D01*
X223233Y9797D01*
X222587Y10764D01*
X221764Y11587D01*
X220797Y12233D01*
X219723Y12679D01*
X218582Y12905D01*
X217418D01*
X216277Y12679D01*
X215203Y12233D01*
X214235Y11587D01*
X213413Y10764D01*
X212767Y9797D01*
X212321Y8723D01*
X212094Y7582D01*
Y6418D01*
X212321Y5277D01*
X212767Y4203D01*
X213413Y3235D01*
X214235Y2413D01*
X214900Y1969D01*
X214828Y946D01*
X214397Y0D01*
X0D01*
Y197000D01*
X393500D01*
Y0D01*
D02*
G37*
G36*
X141991Y128797D02*
X141238Y126978D01*
X50081D01*
X49594Y128090D01*
X49567Y128947D01*
X50265Y129413D01*
X51087Y130236D01*
X51613Y131022D01*
X139766D01*
X141991Y128797D01*
D02*
G37*
G36*
X112702Y119053D02*
X112413Y118764D01*
X111767Y117797D01*
X111321Y116723D01*
X111094Y115582D01*
Y114418D01*
X111321Y113277D01*
X111767Y112203D01*
X112335Y111353D01*
X112453Y111120D01*
X112364Y110691D01*
X111309Y109636D01*
X110880Y109547D01*
X110647Y109665D01*
X109797Y110233D01*
X108723Y110679D01*
X107582Y110906D01*
X106418D01*
X105277Y110679D01*
X104203Y110233D01*
X103235Y109587D01*
X102413Y108765D01*
X102082Y108269D01*
X89543D01*
X89498Y108378D01*
X88851Y109346D01*
X88029Y110168D01*
X87062Y110814D01*
X85987Y111260D01*
X84846Y111487D01*
X83683D01*
X82542Y111260D01*
X81467Y110814D01*
X80500Y110168D01*
X79677Y109346D01*
X79031Y108378D01*
X78586Y107304D01*
X78359Y106163D01*
Y104999D01*
X78586Y103859D01*
X78918Y103057D01*
X78562Y102140D01*
X77796Y101089D01*
X29305D01*
X27871Y102745D01*
X27905Y102918D01*
Y104082D01*
X27679Y105223D01*
X27233Y106297D01*
X26665Y107147D01*
X25973Y108505D01*
X26587Y109736D01*
X26945Y110272D01*
X41238D01*
X41267Y110203D01*
X41913Y109236D01*
X42735Y108413D01*
X43703Y107767D01*
X44777Y107321D01*
X45918Y107095D01*
X47082D01*
X48223Y107321D01*
X49297Y107767D01*
X50265Y108413D01*
X51087Y109236D01*
X51733Y110203D01*
X52179Y111277D01*
X52406Y112418D01*
Y113582D01*
X52179Y114723D01*
X51733Y115797D01*
X51087Y116764D01*
X50265Y117587D01*
X49297Y118233D01*
X48223Y118679D01*
X47082Y118905D01*
X45918D01*
X44777Y118679D01*
X43703Y118233D01*
X42735Y117587D01*
X41913Y116764D01*
X41554Y116228D01*
X29308D01*
X27905Y117595D01*
Y121022D01*
X111947D01*
X112702Y119053D01*
D02*
G37*
G36*
X154022Y116766D02*
Y110113D01*
X153353Y109665D01*
X152000Y108975D01*
X150647Y109665D01*
X149978Y110113D01*
Y118238D01*
X151797Y118991D01*
X154022Y116766D01*
D02*
G37*
G36*
X230240Y100580D02*
X231090Y100012D01*
X232165Y99566D01*
X233306Y99339D01*
X234469D01*
X235610Y99566D01*
X235861Y99670D01*
X237166Y98080D01*
X237031Y97878D01*
X236586Y96804D01*
X236359Y95663D01*
Y94499D01*
X236586Y93359D01*
X237031Y92284D01*
X235912Y90415D01*
X231797D01*
X224797Y97415D01*
Y99405D01*
X225610Y99566D01*
X226685Y100012D01*
X227535Y100580D01*
X228888Y101270D01*
X230240Y100580D01*
D02*
G37*
G36*
X250240D02*
X251090Y100012D01*
X252165Y99566D01*
X253306Y99339D01*
X253983D01*
X254201Y99122D01*
X254419Y98596D01*
X254892Y97979D01*
X256622Y96249D01*
X257239Y95776D01*
X257957Y95478D01*
X258728Y95377D01*
X269048D01*
X269819Y95478D01*
X270323Y95688D01*
X270767Y95685D01*
X272371Y95052D01*
X272558Y94869D01*
X272578Y94789D01*
X266266Y88478D01*
X246555D01*
X245958Y90447D01*
X246029Y90494D01*
X246851Y91317D01*
X247498Y92284D01*
X247943Y93359D01*
X248170Y94499D01*
Y95663D01*
X247943Y96804D01*
X247498Y97878D01*
X246866Y98824D01*
Y100133D01*
X247535Y100580D01*
X248888Y101270D01*
X250240Y100580D01*
D02*
G37*
G36*
X199301Y101480D02*
X200123Y100658D01*
X201090Y100012D01*
X202165Y99566D01*
X203306Y99339D01*
X204469D01*
X205610Y99566D01*
X206685Y100012D01*
X207535Y100580D01*
X208888Y101270D01*
X210240Y100580D01*
X211090Y100012D01*
X212165Y99566D01*
X213306Y99339D01*
X214469D01*
X215610Y99566D01*
X216685Y100012D01*
X216872Y100136D01*
X218840Y99162D01*
Y96182D01*
X218941Y95411D01*
X219239Y94693D01*
X219712Y94076D01*
X225491Y88297D01*
X224738Y86478D01*
X212143D01*
X212143Y86478D01*
X211757Y86427D01*
X211372Y86377D01*
X210654Y86079D01*
X210037Y85606D01*
X205397Y80966D01*
X204469Y81151D01*
X203306D01*
X202165Y80923D01*
X201090Y80478D01*
X200123Y79832D01*
X199301Y79009D01*
X198654Y78042D01*
X198209Y76968D01*
X198107Y76452D01*
X196060Y76251D01*
X196013Y76363D01*
X195367Y77330D01*
X194544Y78153D01*
X193577Y78799D01*
X192860Y79096D01*
Y102267D01*
X198775D01*
X199301Y101480D01*
D02*
G37*
G36*
X276096Y89391D02*
X277859Y88163D01*
Y86999D01*
X278043Y86072D01*
X271142Y79171D01*
X268314D01*
X267652Y79832D01*
X266685Y80478D01*
X266504Y80553D01*
X266896Y82522D01*
X267500D01*
X268271Y82623D01*
X268989Y82921D01*
X269606Y83394D01*
X275651Y89440D01*
X276096Y89391D01*
D02*
G37*
G36*
X64685Y76943D02*
X64664Y76906D01*
X64327Y75650D01*
Y75500D01*
X69264D01*
Y75000D01*
X69764D01*
Y70063D01*
X69914D01*
X71170Y70399D01*
X72296Y71049D01*
X73215Y71969D01*
X73246Y72022D01*
X102063D01*
Y70063D01*
X106500D01*
Y75000D01*
X107500D01*
Y70063D01*
X111226D01*
X111814Y69580D01*
X112677Y67846D01*
X112031Y66878D01*
X111586Y65804D01*
X111359Y64663D01*
Y63499D01*
X111586Y62359D01*
X112031Y61284D01*
X112677Y60317D01*
X113500Y59494D01*
X114467Y58848D01*
X115542Y58403D01*
X116683Y58176D01*
X117846D01*
X118987Y58403D01*
X120062Y58848D01*
X121029Y59494D01*
X121852Y60317D01*
X122053Y60619D01*
X124022Y60021D01*
Y54634D01*
X123888Y54556D01*
X122944Y53612D01*
X122578Y52978D01*
X116278D01*
X116087Y53264D01*
X115264Y54087D01*
X114297Y54733D01*
X113223Y55179D01*
X112082Y55405D01*
X110918D01*
X109777Y55179D01*
X108703Y54733D01*
X107736Y54087D01*
X106913Y53264D01*
X106267Y52297D01*
X105821Y51223D01*
X105595Y50082D01*
Y48918D01*
X105821Y47777D01*
X106267Y46703D01*
X106913Y45735D01*
X107736Y44913D01*
X108703Y44267D01*
X109777Y43821D01*
X110918Y43595D01*
X112082D01*
X113223Y43821D01*
X114297Y44267D01*
X115264Y44913D01*
X116087Y45735D01*
X116733Y46703D01*
X116866Y47022D01*
X120686D01*
X121931Y45569D01*
Y35478D01*
X44234D01*
X27721Y51991D01*
X27905Y52918D01*
Y54082D01*
X27679Y55223D01*
X27233Y56297D01*
X26665Y57147D01*
X25975Y58500D01*
X26665Y59853D01*
X27233Y60703D01*
X27679Y61777D01*
X27905Y62918D01*
Y64082D01*
X27721Y65009D01*
X41623Y78912D01*
X63549D01*
X64685Y76943D01*
D02*
G37*
G36*
X132086Y61859D02*
X132531Y60784D01*
X133177Y59817D01*
X134000Y58994D01*
X134967Y58348D01*
X136042Y57903D01*
X137183Y57676D01*
X138346D01*
X139487Y57903D01*
X140562Y58348D01*
X141529Y58994D01*
X142053Y59518D01*
X143234Y59266D01*
X144022Y58773D01*
Y42734D01*
X136766Y35478D01*
X132069D01*
Y45569D01*
X132021D01*
X131314Y46902D01*
X131143Y47537D01*
X131723Y48544D01*
X132069Y49833D01*
Y51167D01*
X131723Y52456D01*
X131056Y53612D01*
X130112Y54556D01*
X129978Y54634D01*
Y62364D01*
X131947Y62558D01*
X132086Y61859D01*
D02*
G37*
%LPC*%
G36*
X264914Y185018D02*
X264764D01*
Y180581D01*
X269201D01*
Y180731D01*
X268865Y181987D01*
X268215Y183113D01*
X267296Y184032D01*
X266170Y184682D01*
X264914Y185018D01*
D02*
G37*
G36*
X263764D02*
X263614D01*
X262359Y184682D01*
X261233Y184032D01*
X260314Y183113D01*
X259664Y181987D01*
X259327Y180731D01*
Y180581D01*
X263764D01*
Y185018D01*
D02*
G37*
G36*
X269201Y179581D02*
X264764D01*
Y175144D01*
X264914D01*
X266170Y175481D01*
X267296Y176130D01*
X268215Y177050D01*
X268865Y178175D01*
X269201Y179431D01*
Y179581D01*
D02*
G37*
G36*
X263764D02*
X259327D01*
Y179431D01*
X259664Y178175D01*
X260314Y177050D01*
X261233Y176130D01*
X262359Y175481D01*
X263614Y175144D01*
X263764D01*
Y179581D01*
D02*
G37*
G36*
X25937Y163937D02*
X21500D01*
Y159500D01*
X25937D01*
Y163937D01*
D02*
G37*
G36*
X20500D02*
X16063D01*
Y159500D01*
X20500D01*
Y163937D01*
D02*
G37*
G36*
X25937Y158500D02*
X21000D01*
X16063D01*
Y154063D01*
X16297D01*
X17112Y152094D01*
X17049Y152031D01*
X16399Y150906D01*
X16063Y149650D01*
Y149500D01*
X21000D01*
X25937D01*
Y149650D01*
X25601Y150906D01*
X24951Y152031D01*
X24888Y152094D01*
X25703Y154063D01*
X25937D01*
Y158500D01*
D02*
G37*
G36*
X116264Y152018D02*
X116114D01*
X114859Y151682D01*
X113733Y151032D01*
X112814Y150112D01*
X112164Y148987D01*
X111827Y147731D01*
Y147581D01*
X116264D01*
Y152018D01*
D02*
G37*
G36*
X25937Y148500D02*
X21500D01*
Y144063D01*
X21650D01*
X22906Y144399D01*
X24031Y145049D01*
X24951Y145969D01*
X25601Y147094D01*
X25937Y148350D01*
Y148500D01*
D02*
G37*
G36*
X20500D02*
X16063D01*
Y148350D01*
X16399Y147094D01*
X17049Y145969D01*
X17969Y145049D01*
X19094Y144399D01*
X20350Y144063D01*
X20500D01*
Y148500D01*
D02*
G37*
G36*
X116264Y146581D02*
X111827D01*
Y146431D01*
X112164Y145176D01*
X112814Y144050D01*
X113733Y143131D01*
X114859Y142481D01*
X116114Y142144D01*
X116264D01*
Y146581D01*
D02*
G37*
G36*
X370100Y98600D02*
X366500D01*
Y95000D01*
X370100D01*
Y98600D01*
D02*
G37*
G36*
X365500D02*
X361900D01*
Y95000D01*
X365500D01*
Y98600D01*
D02*
G37*
G36*
X370100Y94000D02*
X366000D01*
X361900D01*
Y90400D01*
X362144D01*
X362712Y88990D01*
X362763Y88431D01*
X361944Y87612D01*
X361277Y86457D01*
X360931Y85167D01*
Y83833D01*
X361277Y82543D01*
X361944Y81388D01*
X362888Y80444D01*
X364043Y79777D01*
X365333Y79431D01*
X366667D01*
X367956Y79777D01*
X369112Y80444D01*
X370056Y81388D01*
X370724Y82543D01*
X371069Y83833D01*
Y85167D01*
X370724Y86457D01*
X370056Y87612D01*
X369237Y88431D01*
X369288Y88990D01*
X369856Y90400D01*
X370100D01*
Y94000D01*
D02*
G37*
G36*
X313582Y88406D02*
X312418D01*
X311277Y88179D01*
X310203Y87733D01*
X309236Y87087D01*
X308413Y86264D01*
X307767Y85297D01*
X307321Y84223D01*
X307095Y83082D01*
Y81918D01*
X307321Y80777D01*
X307767Y79703D01*
X308413Y78736D01*
X309236Y77913D01*
X309404Y77800D01*
Y72996D01*
X308967Y72815D01*
X308000Y72168D01*
X307177Y71346D01*
X306531Y70378D01*
X306086Y69304D01*
X305859Y68163D01*
Y67000D01*
X306086Y65859D01*
X306531Y64784D01*
X307177Y63817D01*
X308000Y62994D01*
X308967Y62348D01*
X310042Y61903D01*
X311183Y61676D01*
X312346D01*
X313487Y61903D01*
X314562Y62348D01*
X315529Y62994D01*
X316352Y63817D01*
X316998Y64784D01*
X317443Y65859D01*
X317670Y67000D01*
Y68163D01*
X317443Y69304D01*
X316998Y70378D01*
X316352Y71346D01*
X315529Y72168D01*
X315360Y72281D01*
Y77086D01*
X315797Y77267D01*
X316764Y77913D01*
X317587Y78736D01*
X318233Y79703D01*
X318679Y80777D01*
X318905Y81918D01*
Y83082D01*
X318679Y84223D01*
X318233Y85297D01*
X317587Y86264D01*
X316764Y87087D01*
X315797Y87733D01*
X314723Y88179D01*
X313582Y88406D01*
D02*
G37*
G36*
X156650Y39937D02*
X156500D01*
Y35500D01*
X160937D01*
Y35650D01*
X160601Y36906D01*
X159951Y38031D01*
X159031Y38951D01*
X157906Y39601D01*
X156650Y39937D01*
D02*
G37*
G36*
X155500D02*
X155350D01*
X154094Y39601D01*
X152969Y38951D01*
X152049Y38031D01*
X151399Y36906D01*
X151063Y35650D01*
Y35500D01*
X155500D01*
Y39937D01*
D02*
G37*
G36*
X26437Y34937D02*
X22000D01*
Y30500D01*
X26437D01*
Y34937D01*
D02*
G37*
G36*
X21000D02*
X16563D01*
Y30500D01*
X21000D01*
Y34937D01*
D02*
G37*
G36*
X160937Y34500D02*
X156500D01*
Y30063D01*
X156650D01*
X157906Y30399D01*
X159031Y31049D01*
X159951Y31969D01*
X160601Y33094D01*
X160937Y34350D01*
Y34500D01*
D02*
G37*
G36*
X155500D02*
X151063D01*
Y34350D01*
X151399Y33094D01*
X152049Y31969D01*
X152969Y31049D01*
X154094Y30399D01*
X155350Y30063D01*
X155500D01*
Y34500D01*
D02*
G37*
G36*
X26437Y29500D02*
X21500D01*
X16563D01*
Y25063D01*
X16797D01*
X17613Y23095D01*
X17549Y23031D01*
X16899Y21906D01*
X16563Y20650D01*
Y20500D01*
X21500D01*
X26437D01*
Y20650D01*
X26101Y21906D01*
X25451Y23031D01*
X25387Y23095D01*
X26203Y25063D01*
X26437D01*
Y29500D01*
D02*
G37*
G36*
Y19500D02*
X22000D01*
Y15063D01*
X22150D01*
X23406Y15399D01*
X24531Y16049D01*
X25451Y16969D01*
X26101Y18094D01*
X26437Y19350D01*
Y19500D01*
D02*
G37*
G36*
X21000D02*
X16563D01*
Y19350D01*
X16899Y18094D01*
X17549Y16969D01*
X18469Y16049D01*
X19594Y15399D01*
X20850Y15063D01*
X21000D01*
Y19500D01*
D02*
G37*
G36*
X68764Y74500D02*
X64327D01*
Y74350D01*
X64664Y73094D01*
X65314Y71969D01*
X66233Y71049D01*
X67359Y70399D01*
X68614Y70063D01*
X68764D01*
Y74500D01*
D02*
G37*
%LPD*%
D29*
X40390Y81890D02*
X150110D01*
X157000Y75000D01*
X22000Y63500D02*
X40390Y81890D01*
X117000Y75000D02*
X117132Y74868D01*
Y64213D02*
Y74868D01*
Y64213D02*
X117264Y64081D01*
X258800Y157081D02*
X293763D01*
X137000Y105000D02*
X138130Y106130D01*
Y110630D01*
X138370Y110870D01*
Y114870D01*
X139500Y116000D01*
X216633Y122500D02*
X233888Y105245D01*
X163000Y122500D02*
X216633D01*
X223500Y158500D02*
X224000Y158000D01*
X223500Y158500D02*
X224000D01*
Y148500D02*
X233888Y138612D01*
X224000Y148500D02*
Y158000D01*
Y158500D02*
X257381D01*
X233888Y105245D02*
Y138612D01*
X257381Y158500D02*
X258800Y157081D01*
X69264Y75000D02*
X107000D01*
X160110Y98110D02*
X167000Y105000D01*
X27390Y98110D02*
X160110D01*
X22000Y103500D02*
X27390Y98110D01*
X156173Y85827D02*
X167000Y75000D01*
X34327Y85827D02*
X156173D01*
X22000Y73500D02*
X34327Y85827D01*
X137382Y63963D02*
X137764Y63581D01*
X137382Y63963D02*
Y74618D01*
X137000Y75000D02*
X137382Y74618D01*
X46250Y113250D02*
X46500Y113000D01*
X22250Y113250D02*
X46250D01*
X22000Y113500D02*
X22250Y113250D01*
X141000Y134000D02*
X157000Y118000D01*
Y105000D02*
Y118000D01*
X46500Y134000D02*
X141000D01*
X129500Y113619D02*
Y115000D01*
X127000Y111119D02*
X129500Y113619D01*
X127000Y105000D02*
Y111119D01*
X84264Y105581D02*
X84555Y105291D01*
X106709D01*
X107000Y105000D01*
X147000Y41500D02*
Y75000D01*
X138000Y32500D02*
X147000Y41500D01*
X43000Y32500D02*
X138000D01*
X22000Y53500D02*
X43000Y32500D01*
X22000Y83500D02*
X28264Y89764D01*
X162236D01*
X177000Y75000D01*
X269000Y54500D02*
X269500D01*
X260419Y63081D02*
X269000Y54500D01*
X127000Y40500D02*
Y50500D01*
X111500Y49500D02*
X112000Y50000D01*
X126500D01*
X127000Y50500D01*
X213764Y58110D02*
X214070Y57805D01*
X213764Y58110D02*
X213882Y58228D01*
X228500Y57500D02*
X233888Y62888D01*
X214070Y57805D02*
X228195D01*
X228500Y57500D01*
X233888Y62888D02*
Y75245D01*
X249764Y63081D02*
X260419D01*
X127000Y50500D02*
Y75000D01*
X117000Y105000D02*
Y113000D01*
X22000Y123500D02*
X22500Y124000D01*
X143847D01*
X147000Y120847D01*
Y105000D02*
Y120847D01*
X163867Y93701D02*
X163969Y93599D01*
X165599D01*
X22000Y93500D02*
X22201Y93701D01*
X163867D01*
X165599Y93599D02*
X177000Y105000D01*
X253267Y105865D02*
X253888Y105245D01*
X251500Y113902D02*
X253267Y112135D01*
Y105865D02*
Y112135D01*
X251500Y113902D02*
Y115500D01*
X312382Y68199D02*
Y81882D01*
X311764Y67581D02*
X312382Y68199D01*
Y81882D02*
X313000Y82500D01*
X235633Y83500D02*
X243888Y75245D01*
X212143Y83500D02*
X235633D01*
X230563Y87437D02*
X237263D01*
X239200Y85500D02*
X267500D01*
X237263Y87437D02*
X239200Y85500D01*
X221818Y96182D02*
X230563Y87437D01*
X203888Y75245D02*
X212143Y83500D01*
X307493Y148007D02*
X319500Y136000D01*
X307493Y148007D02*
Y153094D01*
X293088Y167500D02*
X307493Y153094D01*
X242875Y55625D02*
X254815Y43685D01*
X242875Y55625D02*
Y74232D01*
X254815Y17000D02*
Y43685D01*
X221818Y96182D02*
Y101577D01*
X223888Y103647D02*
Y105245D01*
X221818Y101577D02*
X223888Y103647D01*
X127000Y156500D02*
X127382Y156118D01*
Y143963D02*
Y156118D01*
Y143963D02*
X127764Y143581D01*
X254500Y167500D02*
X293088D01*
X189882Y74463D02*
X190779Y73566D01*
X189882Y74463D02*
Y104092D01*
X203888Y105245D02*
X213888D01*
X191035D02*
X203888D01*
X267500Y85500D02*
X279000Y97000D01*
X242500Y95000D02*
X243888Y96388D01*
Y105245D01*
X242875Y74232D02*
X243888Y75245D01*
X189882Y104092D02*
X191035Y105245D01*
X256998Y100085D02*
Y100537D01*
Y100085D02*
X258728Y98355D01*
X269048D01*
X283500Y112807D02*
Y143500D01*
X253888Y103647D02*
X256998Y100537D01*
X269048Y98355D02*
X283500Y112807D01*
X253888Y103647D02*
Y105245D01*
X274500Y17000D02*
X294185D01*
X260500Y3000D02*
X274500Y17000D01*
X219598Y7000D02*
X223598Y3000D01*
X260500D01*
X218000Y7000D02*
X219598D01*
X202764Y64122D02*
X213888Y75245D01*
X202764Y37581D02*
Y64122D01*
X253888Y75245D02*
X263888D01*
X272375Y76192D02*
X283764Y87581D01*
X264835Y76192D02*
X272375D01*
X263888Y75245D02*
X264835Y76192D01*
X127000Y156500D02*
Y166500D01*
D30*
X177000Y105000D02*
D03*
Y75000D02*
D03*
X117000D02*
D03*
X137000D02*
D03*
X147000D02*
D03*
X157000D02*
D03*
X167000D02*
D03*
X107000Y105000D02*
D03*
X117000D02*
D03*
X127000D02*
D03*
X147000D02*
D03*
X157000D02*
D03*
X167000D02*
D03*
X137000D02*
D03*
X127000Y75000D02*
D03*
X22000Y63500D02*
D03*
X233888Y105245D02*
D03*
X21000Y149000D02*
D03*
X21500Y20000D02*
D03*
X223888Y75245D02*
D03*
X22000Y103500D02*
D03*
Y73500D02*
D03*
Y113500D02*
D03*
Y53500D02*
D03*
Y83500D02*
D03*
X233888Y75245D02*
D03*
X22000Y93500D02*
D03*
X253888Y105245D02*
D03*
X243888D02*
D03*
X223888D02*
D03*
X213888D02*
D03*
X203888D02*
D03*
X263888Y75245D02*
D03*
X253888D02*
D03*
X243888D02*
D03*
X213888D02*
D03*
X203888D02*
D03*
X117264Y64081D02*
D03*
X293763Y157081D02*
D03*
X139500Y116000D02*
D03*
X163764Y122081D02*
D03*
X69264Y75000D02*
D03*
X156000Y35000D02*
D03*
X264264Y180081D02*
D03*
X116764Y147081D02*
D03*
X137764Y63581D02*
D03*
X46500Y134000D02*
D03*
Y113000D02*
D03*
X129500Y115000D02*
D03*
X84264Y105581D02*
D03*
X268764Y54081D02*
D03*
X111500Y49500D02*
D03*
X213764Y58110D02*
D03*
X228500Y57500D02*
D03*
X249764Y63081D02*
D03*
X117000Y115000D02*
D03*
X251500Y115500D02*
D03*
X313000Y82500D02*
D03*
X319500Y136000D02*
D03*
X127764Y143581D02*
D03*
X254264Y167581D02*
D03*
X190779Y73566D02*
D03*
X242264Y95081D02*
D03*
X283764Y143081D02*
D03*
X202764Y37581D02*
D03*
X218000Y7000D02*
D03*
X283764Y87581D02*
D03*
X279764Y98081D02*
D03*
X311764Y67581D02*
D03*
D31*
X107000Y75000D02*
D03*
X21000Y159000D02*
D03*
X21500Y30000D02*
D03*
X22000Y123500D02*
D03*
X263888Y105245D02*
D03*
D32*
X224000Y148500D02*
D03*
X366000Y94500D02*
D03*
X127000Y40500D02*
D03*
Y166500D02*
D03*
D33*
X224000Y158500D02*
D03*
X127000Y50500D02*
D03*
Y156500D02*
D03*
X366000Y84500D02*
D03*
D34*
X274500Y17000D02*
D03*
X294185D02*
D03*
D35*
X254815D02*
D03*
M02*
