G04*
G04 #@! TF.GenerationSoftware,Altium Limited,Altium Designer,26.1.1 (7)*
G04*
G04 Layer_Color=65535*
%FSLAX25Y25*%
%MOIN*%
G70*
G04*
G04 #@! TF.SameCoordinates,68A3534C-4751-42E1-90B0-0C70C05802D8*
G04*
G04*
G04 #@! TF.FilePolarity,Positive*
G04*
G01*
G75*
%ADD10C,0.00787*%
%ADD11C,0.00984*%
%ADD12C,0.02362*%
%ADD13C,0.00394*%
%ADD14C,0.01000*%
D10*
X97630Y87500D02*
G03*
X97630Y92500I0J2500D01*
G01*
X273258Y92745D02*
G03*
X273258Y87745I0J-2500D01*
G01*
X97630Y79764D02*
X181500D01*
X97630Y100236D02*
X181500D01*
X97630Y79764D02*
Y87500D01*
Y92500D02*
Y100236D01*
X181500Y79764D02*
Y100236D01*
X261933Y144240D02*
X266067D01*
X306433Y139260D02*
X310567D01*
X300433Y123000D02*
X304567D01*
X324425Y94791D02*
X328559D01*
Y98138D01*
X324425Y106209D02*
X328559D01*
Y102862D02*
Y106209D01*
X324488Y65791D02*
X328622D01*
Y69138D01*
X324488Y77209D02*
X328622D01*
Y73862D02*
Y77209D01*
X215933Y19760D02*
X220067D01*
X121606Y40500D02*
Y55992D01*
X132394D01*
Y35008D02*
Y55992D01*
X127000Y35008D02*
X132394D01*
X135433Y35760D02*
X139567D01*
X135433Y49500D02*
X139567D01*
X115433Y127500D02*
X119567D01*
X124933Y128500D02*
X129067D01*
X197500Y80009D02*
Y100481D01*
X273258D01*
X197500Y80009D02*
X273258D01*
Y92745D02*
Y100481D01*
Y80009D02*
Y87745D01*
X187433Y90000D02*
X191567D01*
X299933Y58000D02*
X304067D01*
X299547Y99929D02*
Y105835D01*
X305453Y99929D02*
Y105835D01*
X299547Y77047D02*
Y82953D01*
X305453Y77047D02*
Y82953D01*
X224000Y143008D02*
X229394D01*
Y163992D01*
X218606D02*
X229394D01*
X218606Y148500D02*
Y163992D01*
X16606Y128992D02*
X22000D01*
X16606Y48008D02*
Y128992D01*
Y48008D02*
X27394D01*
Y123500D01*
X121606Y171992D02*
X127000D01*
X121606Y151008D02*
Y171992D01*
Y151008D02*
X132394D01*
Y166500D01*
X15606Y164492D02*
X21000D01*
X15606Y143508D02*
Y164492D01*
Y143508D02*
X26394D01*
Y159000D01*
X360606Y99992D02*
X366000D01*
X360606Y79008D02*
Y99992D01*
Y79008D02*
X371394D01*
Y94500D01*
X16106Y35492D02*
X21500D01*
X16106Y14508D02*
Y35492D01*
Y14508D02*
X26894D01*
Y30000D01*
X261933Y119000D02*
X266067D01*
D11*
X102177Y75000D02*
G03*
X102177Y75000I-492J0D01*
G01*
X269695Y105245D02*
G03*
X269695Y105245I-492J0D01*
G01*
X302992Y91071D02*
G03*
X302992Y91071I-492J0D01*
G01*
Y68189D02*
G03*
X302992Y68189I-492J0D01*
G01*
D12*
X102748Y83701D02*
G03*
X102748Y83701I-1181J0D01*
G01*
X270502Y96544D02*
G03*
X270502Y96544I-1181J0D01*
G01*
D13*
X319307Y104437D02*
G03*
X318913Y104437I-197J0D01*
G01*
D02*
G03*
X319307Y104437I197J0D01*
G01*
X319370Y75437D02*
G03*
X318976Y75437I-197J0D01*
G01*
D02*
G03*
X319370Y75437I197J0D01*
G01*
X245760Y22512D02*
Y40228D01*
X303240D01*
Y22512D02*
Y40228D01*
X245760Y2827D02*
Y22512D01*
Y2827D02*
X303240D01*
Y22512D01*
D14*
X197900Y118598D02*
Y113600D01*
X198900Y112600D01*
X200899D01*
X201899Y113600D01*
Y118598D01*
X203898Y112600D02*
X205897D01*
X204898D01*
Y118598D01*
X203898Y117598D01*
X246002Y48499D02*
Y44500D01*
X248002Y42501D01*
X250001Y44500D01*
Y48499D01*
X252000Y42501D02*
Y48499D01*
X254999D01*
X255999Y47499D01*
Y45500D01*
X254999Y44500D01*
X252000D01*
X254000D02*
X255999Y42501D01*
X257998D02*
X259998D01*
X258998D01*
Y48499D01*
X257998Y47499D01*
X280002Y58501D02*
Y64499D01*
X283001D01*
X284001Y63499D01*
Y61500D01*
X283001Y60500D01*
X280002D01*
X282002D02*
X284001Y58501D01*
X286000D02*
X288000D01*
X287000D01*
Y64499D01*
X286000Y63499D01*
X294998Y58501D02*
X290999D01*
X294998Y62500D01*
Y63499D01*
X293998Y64499D01*
X291999D01*
X290999Y63499D01*
X285502Y123001D02*
Y128999D01*
X288501D01*
X289501Y127999D01*
Y126000D01*
X288501Y125000D01*
X285502D01*
X287502D02*
X289501Y123001D01*
X291500D02*
X293499D01*
X292500D01*
Y128999D01*
X291500Y127999D01*
X296498Y123001D02*
X298498D01*
X297498D01*
Y128999D01*
X296498Y127999D01*
X223502Y17001D02*
Y22999D01*
X226501D01*
X227501Y21999D01*
Y20000D01*
X226501Y19000D01*
X223502D01*
X225502D02*
X227501Y17001D01*
X229501D02*
X231500D01*
X230500D01*
Y22999D01*
X229501Y21999D01*
X234499D02*
X235498Y22999D01*
X237498D01*
X238498Y21999D01*
Y18001D01*
X237498Y17001D01*
X235498D01*
X234499Y18001D01*
Y21999D01*
X269002Y147001D02*
Y152999D01*
X272001D01*
X273000Y151999D01*
Y150000D01*
X272001Y149000D01*
X269002D01*
X271001D02*
X273000Y147001D01*
X275000Y148001D02*
X275999Y147001D01*
X277999D01*
X278998Y148001D01*
Y151999D01*
X277999Y152999D01*
X275999D01*
X275000Y151999D01*
Y151000D01*
X275999Y150000D01*
X278998D01*
X261000Y128800D02*
Y134798D01*
X263999D01*
X264999Y133798D01*
Y131799D01*
X263999Y130799D01*
X261000D01*
X262999D02*
X264999Y128800D01*
X266998Y134798D02*
X270997D01*
Y133798D01*
X266998Y129800D01*
Y128800D01*
X294502Y145001D02*
Y150999D01*
X297501D01*
X298500Y149999D01*
Y148000D01*
X297501Y147000D01*
X294502D01*
X296501D02*
X298500Y145001D01*
X304498Y150999D02*
X302499Y149999D01*
X300500Y148000D01*
Y146001D01*
X301499Y145001D01*
X303499D01*
X304498Y146001D01*
Y147000D01*
X303499Y148000D01*
X300500D01*
X142502Y37501D02*
Y43499D01*
X145501D01*
X146500Y42499D01*
Y40500D01*
X145501Y39500D01*
X142502D01*
X144501D02*
X146500Y37501D01*
X152498Y43499D02*
X148500D01*
Y40500D01*
X150499Y41500D01*
X151499D01*
X152498Y40500D01*
Y38501D01*
X151499Y37501D01*
X149499D01*
X148500Y38501D01*
X145002Y52001D02*
Y57999D01*
X148001D01*
X149000Y56999D01*
Y55000D01*
X148001Y54000D01*
X145002D01*
X147001D02*
X149000Y52001D01*
X153999D02*
Y57999D01*
X151000Y55000D01*
X154998D01*
X185502Y100001D02*
Y105999D01*
X188501D01*
X189500Y104999D01*
Y103000D01*
X188501Y102000D01*
X185502D01*
X187501D02*
X189500Y100001D01*
X191500Y104999D02*
X192499Y105999D01*
X194499D01*
X195498Y104999D01*
Y104000D01*
X194499Y103000D01*
X193499D01*
X194499D01*
X195498Y102000D01*
Y101001D01*
X194499Y100001D01*
X192499D01*
X191500Y101001D01*
X133002Y127501D02*
Y133499D01*
X136001D01*
X137000Y132499D01*
Y130500D01*
X136001Y129500D01*
X133002D01*
X135001D02*
X137000Y127501D01*
X142998D02*
X139000D01*
X142998Y131500D01*
Y132499D01*
X141999Y133499D01*
X139999D01*
X139000Y132499D01*
X104501Y127501D02*
Y133499D01*
X107500D01*
X108500Y132499D01*
Y130500D01*
X107500Y129500D01*
X104501D01*
X106501D02*
X108500Y127501D01*
X110499D02*
X112499D01*
X111499D01*
Y133499D01*
X110499Y132499D01*
X338500Y68001D02*
Y71999D01*
X337501Y72999D01*
X335501D01*
X334502Y71999D01*
Y68001D01*
X335501Y67001D01*
X337501D01*
X336501Y69000D02*
X338500Y67001D01*
X337501D02*
X338500Y68001D01*
X344498Y67001D02*
X340500D01*
X344498Y71000D01*
Y71999D01*
X343499Y72999D01*
X341499D01*
X340500Y71999D01*
X338500Y99501D02*
Y103499D01*
X337500Y104499D01*
X335501D01*
X334501Y103499D01*
Y99501D01*
X335501Y98501D01*
X337500D01*
X336501Y100500D02*
X338500Y98501D01*
X337500D02*
X338500Y99501D01*
X340499Y98501D02*
X342499D01*
X341499D01*
Y104499D01*
X340499Y103499D01*
X364499Y110098D02*
X362499D01*
X363499D01*
Y105100D01*
X362499Y104100D01*
X361500D01*
X360500Y105100D01*
X366498Y110098D02*
X370497D01*
Y109098D01*
X366498Y105100D01*
Y104100D01*
X19999Y45598D02*
X17999D01*
X18999D01*
Y40600D01*
X17999Y39600D01*
X17000D01*
X16000Y40600D01*
X25997Y45598D02*
X23997Y44598D01*
X21998Y42599D01*
Y40600D01*
X22998Y39600D01*
X24997D01*
X25997Y40600D01*
Y41599D01*
X24997Y42599D01*
X21998D01*
X125499Y182098D02*
X123499D01*
X124499D01*
Y177100D01*
X123499Y176100D01*
X122500D01*
X121500Y177100D01*
X131497Y182098D02*
X127498D01*
Y179099D01*
X129497Y180099D01*
X130497D01*
X131497Y179099D01*
Y177100D01*
X130497Y176100D01*
X128498D01*
X127498Y177100D01*
X125500Y65499D02*
X123501D01*
X124501D01*
Y60501D01*
X123501Y59501D01*
X122501D01*
X121502Y60501D01*
X130499Y59501D02*
Y65499D01*
X127500Y62500D01*
X131498D01*
X222499Y174098D02*
X220499D01*
X221499D01*
Y169100D01*
X220499Y168100D01*
X219500D01*
X218500Y169100D01*
X224498Y173098D02*
X225498Y174098D01*
X227497D01*
X228497Y173098D01*
Y172099D01*
X227497Y171099D01*
X226497D01*
X227497D01*
X228497Y170099D01*
Y169100D01*
X227497Y168100D01*
X225498D01*
X224498Y169100D01*
X19499Y174598D02*
X17499D01*
X18499D01*
Y169600D01*
X17499Y168600D01*
X16500D01*
X15500Y169600D01*
X25497Y168600D02*
X21498D01*
X25497Y172599D01*
Y173598D01*
X24497Y174598D01*
X22498D01*
X21498Y173598D01*
X20499Y139098D02*
X18499D01*
X19499D01*
Y134100D01*
X18499Y133100D01*
X17500D01*
X16500Y134100D01*
X22498Y133100D02*
X24497D01*
X23498D01*
Y139098D01*
X22498Y138098D01*
X97500Y118398D02*
X99499D01*
X98500D01*
Y112400D01*
X97500D01*
X99499D01*
X106497Y117398D02*
X105497Y118398D01*
X103498D01*
X102498Y117398D01*
Y113400D01*
X103498Y112400D01*
X105497D01*
X106497Y113400D01*
X108496Y112400D02*
X110496D01*
X109496D01*
Y118398D01*
X108496Y117398D01*
X286502Y90499D02*
Y84501D01*
X289501D01*
X290500Y85501D01*
Y89499D01*
X289501Y90499D01*
X286502D01*
X296498Y84501D02*
X292500D01*
X296498Y88500D01*
Y89499D01*
X295499Y90499D01*
X293499D01*
X292500Y89499D01*
X289001Y113499D02*
Y107501D01*
X292000D01*
X293000Y108501D01*
Y112499D01*
X292000Y113499D01*
X289001D01*
X294999Y107501D02*
X296999D01*
X295999D01*
Y113499D01*
X294999Y112499D01*
X193000Y55499D02*
X192001Y56499D01*
X190001D01*
X189002Y55499D01*
Y51501D01*
X190001Y50501D01*
X192001D01*
X193000Y51501D01*
X197999Y50501D02*
Y56499D01*
X195000Y53500D01*
X198998D01*
X100500Y64499D02*
X99501Y65499D01*
X97501D01*
X96502Y64499D01*
Y60501D01*
X97501Y59501D01*
X99501D01*
X100500Y60501D01*
X102500Y64499D02*
X103499Y65499D01*
X105499D01*
X106498Y64499D01*
Y63500D01*
X105499Y62500D01*
X104499D01*
X105499D01*
X106498Y61500D01*
Y60501D01*
X105499Y59501D01*
X103499D01*
X102500Y60501D01*
X227872Y42499D02*
X226872Y43499D01*
X224873D01*
X223873Y42499D01*
Y38501D01*
X224873Y37501D01*
X226872D01*
X227872Y38501D01*
X233870Y37501D02*
X229872D01*
X233870Y41500D01*
Y42499D01*
X232871Y43499D01*
X230871D01*
X229872Y42499D01*
X274500Y168999D02*
X273500Y169999D01*
X271501D01*
X270501Y168999D01*
Y165001D01*
X271501Y164001D01*
X273500D01*
X274500Y165001D01*
X276499Y164001D02*
X278499D01*
X277499D01*
Y169999D01*
X276499Y168999D01*
M02*
